<svg width="134" height="24" viewBox="0 0 134 24" fill="none" xmlns="http://www.w3.org/2000/svg">
<path d="M4.2178 20.0848C2.0262 17.9345 0.930397 15.288 0.930397 12.1454C0.930397 9.00269 2.0262 6.35622 4.2178 4.20597C6.43008 2.05572 9.15925 0.980594 12.4053 0.980594C14.8243 0.980594 16.9332 1.59052 18.732 2.81038C20.5308 4.03023 21.8333 5.51887 22.6397 7.27628L17.7396 9.13708C17.264 8.16533 16.5507 7.36932 15.5997 6.74906C14.6693 6.12879 13.6045 5.81866 12.4053 5.81866C10.7099 5.81866 9.2833 6.42859 8.12547 7.64844C6.96764 8.8683 6.38873 10.3673 6.38873 12.1454C6.38873 13.9235 6.96764 15.4224 8.12547 16.6423C9.2833 17.8621 10.7099 18.4721 12.4053 18.4721C13.6045 18.4721 14.6693 18.1619 15.5997 17.5417C16.5507 16.9214 17.264 16.1254 17.7396 15.1536L22.6397 17.0144C21.8333 18.7719 20.5308 20.2605 18.732 21.4804C16.9332 22.7002 14.8243 23.3101 12.4053 23.3101C9.15925 23.3101 6.43008 22.235 4.2178 20.0848ZM30.0756 23H25.1135V0.0501973H30.0756V23ZM35.0304 20.9221C33.3764 19.3094 32.5494 17.3142 32.5494 14.9366C32.5494 12.5589 33.3764 10.574 35.0304 8.98201C36.7051 7.36932 38.7727 6.56298 41.2331 6.56298C43.6935 6.56298 45.7507 7.36932 47.4047 8.98201C49.0794 10.574 49.9168 12.5589 49.9168 14.9366C49.9168 17.3142 49.0794 19.3094 47.4047 20.9221C45.7507 22.5141 43.6935 23.3101 41.2331 23.3101C38.7727 23.3101 36.7051 22.5141 35.0304 20.9221ZM38.69 12.2074C38.0284 12.931 37.6976 13.8408 37.6976 14.9366C37.6976 16.0324 38.0284 16.9524 38.69 17.6967C39.3723 18.4204 40.22 18.7822 41.2331 18.7822C42.2462 18.7822 43.0835 18.4204 43.7452 17.6967C44.4274 16.9524 44.7686 16.0324 44.7686 14.9366C44.7686 13.8408 44.4274 12.931 43.7452 12.2074C43.0835 11.4631 42.2462 11.0909 41.2331 11.0909C40.22 11.0909 39.3723 11.4631 38.69 12.2074ZM52.095 16.1151V6.87311H57.0571V16.1151C57.0571 16.9214 57.3052 17.5727 57.8014 18.0689C58.3183 18.5444 59.0006 18.7822 59.8483 18.7822C60.6546 18.7822 61.3163 18.5444 61.8331 18.0689C62.3707 17.5727 62.6395 16.9214 62.6395 16.1151V6.87311H67.6016V16.1151C67.6016 18.2446 66.8676 19.9814 65.3997 21.3253C63.9524 22.6485 62.1019 23.3101 59.8483 23.3101C57.5533 23.3101 55.6822 22.6485 54.2349 21.3253C52.8083 19.9814 52.095 18.2446 52.095 16.1151ZM81.9905 11.37V0.0501973H86.9527V23H81.9905V18.5031C81.5564 19.971 80.8534 21.1392 79.8816 22.0076C78.9099 22.8759 77.7624 23.3101 76.4392 23.3101C74.5164 23.3101 72.9243 22.5141 71.6631 20.9221C70.4019 19.3094 69.7713 17.3142 69.7713 14.9366C69.7713 12.5589 70.4019 10.574 71.6631 8.98201C72.9243 7.36932 74.5164 6.56298 76.4392 6.56298C77.7624 6.56298 78.9099 6.99716 79.8816 7.86553C80.8534 8.73391 81.5564 9.90207 81.9905 11.37ZM78.3 18.7822C79.3751 18.7822 80.2538 18.4204 80.9361 17.6967C81.6391 16.9731 81.9905 16.053 81.9905 14.9366C81.9905 13.8201 81.6391 12.9 80.9361 12.1764C80.2538 11.4527 79.3751 11.0909 78.3 11.0909C77.3696 11.0909 76.5736 11.4631 75.9119 12.2074C75.2503 12.931 74.9195 13.8408 74.9195 14.9366C74.9195 16.0324 75.2503 16.9524 75.9119 17.6967C76.5736 18.4204 77.3696 18.7822 78.3 18.7822ZM95.3197 23H90.0475V1.29073H95.3197V23ZM108.796 6.56298C110.533 6.56298 111.918 7.17291 112.952 8.39276C114.006 9.59194 114.533 11.1633 114.533 13.1068V23H109.571V14.0372C109.571 13.1481 109.292 12.4348 108.734 11.8973C108.176 11.339 107.473 11.0599 106.625 11.0599C105.653 11.0599 104.868 11.339 104.268 11.8973C103.668 12.4348 103.369 13.1481 103.369 14.0372V23H98.4065V6.87311H103.369V10.9048C103.803 9.56093 104.495 8.50648 105.446 7.74148C106.398 6.95581 107.514 6.56298 108.796 6.56298ZM119.348 20.9221C117.694 19.3094 116.867 17.3142 116.867 14.9366C116.867 12.5589 117.694 10.574 119.348 8.98201C121.022 7.36932 123.09 6.56298 125.55 6.56298C127.266 6.56298 128.817 7.01784 130.202 7.92756C131.588 8.81661 132.621 10.0882 133.304 11.7422L128.776 13.2929C128.135 11.8249 127.06 11.0909 125.55 11.0909C124.537 11.0909 123.69 11.4631 123.007 12.2074C122.346 12.931 122.015 13.8408 122.015 14.9366C122.015 16.0324 122.346 16.9524 123.007 17.6967C123.69 18.4204 124.537 18.7822 125.55 18.7822C127.06 18.7822 128.135 18.0482 128.776 16.5803L133.304 18.1309C132.621 19.785 131.588 21.0668 130.202 21.9766C128.817 22.8656 127.266 23.3101 125.55 23.3101C123.09 23.3101 121.022 22.5141 119.348 20.9221Z" fill="#1A3235"/>
</svg>
