<svg width="45" height="40" viewBox="0 0 45 40" fill="none" xmlns="http://www.w3.org/2000/svg">
<path fill-rule="evenodd" clip-rule="evenodd" d="M34.006 35H4.30217V34.9934L10.9901 19.6874H40.6956L34.006 35ZM6.45244 4.37505H12.7549C13.4743 4.37505 14.1438 4.73819 14.5438 5.3485L16.2924 8.01506C17.491 9.84599 19.4977 10.9376 21.6609 10.9376H34.4125C35.5997 10.9376 36.5644 11.9175 36.5644 13.125V15.3125H10.9901C9.29152 15.3125 7.74939 16.3341 7.06059 17.9113L4.30217 24.2222V6.56255C4.30217 5.35506 5.26681 4.37505 6.45244 4.37505ZM44.3041 17.3031C43.5395 16.1043 42.2619 15.389 40.8649 15.3343V13.125C40.8649 9.50686 37.9726 6.5625 34.4125 6.5625H21.6609C20.9398 6.5625 20.272 6.19937 19.8719 5.58906L18.1233 2.9225C16.9248 1.09156 14.9181 0 12.7549 0H6.45244C2.89553 0 0 2.94437 0 6.5625V35C0 35.0349 0.0193573 35.0635 0.0193573 35.0984C0.0387147 35.8969 0.250032 36.6865 0.692025 37.3843C1.4889 38.6311 2.83746 39.375 4.29894 39.375H34.006C35.703 39.375 37.2483 38.3555 37.9355 36.7763H37.9388L44.6267 21.4658C45.2203 20.1053 45.101 18.55 44.3041 17.3031Z" fill="#E0AA63"/>
</svg>
