<svg width="19" height="19" viewBox="0 0 19 19" fill="none" xmlns="http://www.w3.org/2000/svg">
<path d="M0.479004 2.69866C0.479004 2.10273 0.687579 1.61111 1.10471 1.22377C1.52184 0.836426 2.06413 0.642761 2.73155 0.642761C3.38706 0.642761 3.91741 0.833441 4.32263 1.21484C4.73976 1.60814 4.94834 2.12061 4.94834 2.75229C4.94834 3.32436 4.74574 3.80108 4.34051 4.18248C3.92338 4.57578 3.37513 4.77243 2.69579 4.77243H2.67792C2.02241 4.77243 1.49206 4.57578 1.08683 4.18248C0.681608 3.78917 0.479004 3.29456 0.479004 2.69866ZM0.711409 18.3413V6.39927H4.68018V18.3413H0.711409ZM6.87909 18.3413H10.8479V11.6731C10.8479 11.2559 10.8955 10.9341 10.9909 10.7077C11.1577 10.3025 11.411 9.95982 11.7507 9.67976C12.0903 9.39967 12.5164 9.25964 13.0289 9.25964C14.3637 9.25964 15.0312 10.1595 15.0312 11.9591V18.3413H18.9999V11.4943C18.9999 9.7304 18.5828 8.39259 17.7485 7.48084C16.9142 6.5691 15.8118 6.11323 14.4412 6.11323C12.9038 6.11323 11.706 6.77469 10.8479 8.09761V8.13337H10.83L10.8479 8.09761V6.39927H6.87909C6.90292 6.78064 6.91485 7.9665 6.91485 9.95686C6.91485 11.9472 6.90292 14.742 6.87909 18.3413Z" fill="black"/>
</svg>
