<svg width="23" height="23" viewBox="0 0 23 23" fill="none" xmlns="http://www.w3.org/2000/svg">
<path d="M17.2688 4.41238C17.0046 4.41238 16.7463 4.49073 16.5266 4.63751C16.307 4.7843 16.1357 4.99294 16.0346 5.23703C15.9335 5.48113 15.9071 5.74973 15.9586 6.00887C16.0102 6.268 16.1374 6.50603 16.3242 6.69286C16.511 6.87968 16.7491 7.00691 17.0082 7.05846C17.2673 7.11 17.5359 7.08355 17.78 6.98244C18.0241 6.88133 18.2328 6.71011 18.3796 6.49042C18.5263 6.27074 18.6047 6.01246 18.6047 5.74825C18.6047 5.39396 18.4639 5.05417 18.2134 4.80365C17.9629 4.55312 17.6231 4.41238 17.2688 4.41238ZM22.3897 7.10639C22.368 6.18274 22.195 5.2689 21.8776 4.40124C21.5945 3.65887 21.154 2.98664 20.5862 2.43083C20.035 1.86022 19.3612 1.42244 18.6158 1.15062C17.7505 0.823509 16.8356 0.64656 15.9107 0.627402C14.7307 0.560608 14.3522 0.560608 11.3242 0.560608C8.2962 0.560608 7.9177 0.560608 6.73768 0.627402C5.81275 0.64656 4.89789 0.823509 4.03253 1.15062C3.28854 1.42519 2.61532 1.8626 2.06212 2.43083C1.49151 2.98208 1.05373 3.65587 0.781905 4.40124C0.454795 5.26661 0.277847 6.18147 0.258688 7.10639C0.191894 8.28641 0.191895 8.66491 0.191895 11.6929C0.191895 14.7209 0.191894 15.0994 0.258688 16.2794C0.277847 17.2043 0.454795 18.1192 0.781905 18.9845C1.05373 19.7299 1.49151 20.4037 2.06212 20.9549C2.61532 21.5232 3.28854 21.9606 4.03253 22.2352C4.89789 22.5623 5.81275 22.7392 6.73768 22.7584C7.9177 22.8252 8.2962 22.8252 11.3242 22.8252C14.3522 22.8252 14.7307 22.8252 15.9107 22.7584C16.8356 22.7392 17.7505 22.5623 18.6158 22.2352C19.3612 21.9633 20.035 21.5256 20.5862 20.9549C21.1565 20.4012 21.5974 19.7284 21.8776 18.9845C22.195 18.1169 22.368 17.203 22.3897 16.2794C22.3897 15.0994 22.4565 14.7209 22.4565 11.6929C22.4565 8.66491 22.4565 8.28641 22.3897 7.10639ZM20.3859 16.1458C20.3777 16.8524 20.2498 17.5526 20.0074 18.2164C19.8296 18.7009 19.5441 19.1386 19.1724 19.4966C18.8114 19.8645 18.3745 20.1495 17.8922 20.3315C17.2284 20.5739 16.5283 20.7019 15.8216 20.71C14.7084 20.7657 14.2965 20.7768 11.3687 20.7768C8.44092 20.7768 8.02902 20.7768 6.91579 20.71C6.18205 20.7238 5.45145 20.6108 4.75613 20.3761C4.29501 20.1847 3.87819 19.9005 3.53158 19.5411C3.16209 19.1835 2.88017 18.7454 2.70779 18.2609C2.436 17.5876 2.28526 16.8716 2.2625 16.1458C2.2625 15.0326 2.19571 14.6207 2.19571 11.6929C2.19571 8.7651 2.19571 8.35321 2.2625 7.23998C2.26749 6.51755 2.39937 5.80163 2.65213 5.12484C2.84811 4.65496 3.14892 4.23611 3.53158 3.90029C3.86979 3.51753 4.28778 3.21354 4.75613 3.00971C5.4347 2.76485 6.14989 2.63687 6.87126 2.63121C7.98449 2.63121 8.39639 2.56442 11.3242 2.56442C14.252 2.56442 14.6639 2.56442 15.7771 2.63121C16.4837 2.63932 17.1839 2.7673 17.8477 3.00971C18.3536 3.19746 18.8076 3.5027 19.1724 3.90029C19.5372 4.24225 19.8223 4.66033 20.0074 5.12484C20.2548 5.80273 20.3828 6.51836 20.3859 7.23998C20.4415 8.35321 20.4526 8.7651 20.4526 11.6929C20.4526 14.6207 20.4415 15.0326 20.3859 16.1458ZM11.3242 5.98203C10.1952 5.98423 9.09211 6.32104 8.15443 6.94989C7.21675 7.57874 6.48651 8.47143 6.05597 9.51514C5.62544 10.5589 5.51393 11.7068 5.73554 12.8138C5.95715 13.9209 6.50194 14.9374 7.30105 15.735C8.10017 16.5326 9.11777 17.0754 10.2253 17.2948C11.3328 17.5143 12.4804 17.4005 13.5233 16.968C14.5662 16.5354 15.4575 15.8034 16.0845 14.8645C16.7115 13.9256 17.0462 12.8219 17.0462 11.6929C17.0476 10.9416 16.9006 10.1974 16.6134 9.50312C16.3262 8.80886 15.9046 8.17822 15.3728 7.64748C14.8411 7.11673 14.2096 6.69636 13.5148 6.41054C12.82 6.12472 12.0755 5.97909 11.3242 5.98203ZM11.3242 15.3999C10.591 15.3999 9.87427 15.1825 9.26465 14.7752C8.65503 14.3679 8.17989 13.7889 7.89931 13.1115C7.61873 12.4341 7.54532 11.6888 7.68836 10.9697C7.83139 10.2506 8.18446 9.59005 8.7029 9.07161C9.22134 8.55317 9.88187 8.20011 10.601 8.05707C11.3201 7.91403 12.0654 7.98744 12.7428 8.26802C13.4202 8.5486 13.9991 9.02374 14.4065 9.63336C14.8138 10.243 15.0312 10.9597 15.0312 11.6929C15.0312 12.1797 14.9353 12.6618 14.749 13.1115C14.5627 13.5613 14.2897 13.9699 13.9455 14.3142C13.6012 14.6584 13.1926 14.9315 12.7428 15.1178C12.293 15.3041 11.811 15.3999 11.3242 15.3999Z" fill="black"/>
</svg>
