<svg width="171" height="54" viewBox="0 0 171 54" fill="none" xmlns="http://www.w3.org/2000/svg">
<path d="M24.9244 13.9517C8.42554 13.3356 2.07586 25.9608 0.963385 32.3504C-3.28114 16.1938 7.52414 6.73487 13.4573 4.025C28.2447 -1.86257 38.9587 6.47815 42.4673 11.3845C49.0395 19.942 47.6018 29.612 46.0615 33.3773C40.4477 48.6439 27.0638 50.2926 21.0735 49.2087C9.41326 47.0987 10.8616 34.8035 13.4573 30.5533C18.248 22.7092 26.0148 24.2207 27.9195 26.8736C29.8657 30.9244 33.2252 31.0667 34.9367 30.5533C38.8389 29.1156 39.1299 25.7325 38.7876 24.2207C37.4868 16.964 29.0035 14.3511 24.9244 13.9517Z" fill="#E0AA63"/>
<path d="M59.4337 30.0956C57.145 27.8656 56.0007 25.0928 56.0007 21.7771C56.0007 18.4615 57.145 15.6886 59.4337 13.4586C61.7224 11.1993 64.5539 10.0696 67.9283 10.0696C70.3637 10.0696 72.535 10.7005 74.4422 11.9622C76.3788 13.2239 77.8019 14.9551 78.7115 17.1558L74.4422 18.6082C73.8554 17.2878 72.9898 16.2461 71.8454 15.4833C70.7011 14.7204 69.3954 14.3389 67.9283 14.3389C65.9037 14.3389 64.2018 15.0578 62.8227 16.4956C61.4437 17.904 60.7541 19.6645 60.7541 21.7771C60.7541 23.8898 61.4437 25.6503 62.8227 27.0587C64.2018 28.4671 65.9037 29.1713 67.9283 29.1713C69.3954 29.1713 70.7011 28.8046 71.8454 28.071C73.0191 27.3081 73.8847 26.2518 74.4422 24.9021L78.7115 26.3545C77.8019 28.5552 76.3788 30.2863 74.4422 31.5481C72.535 32.8098 70.3637 33.4406 67.9283 33.4406C64.5539 33.4406 61.7224 32.3256 59.4337 30.0956ZM87.4202 33.0005H82.7989V0.430757H87.4202V33.0005ZM95.1514 30.0956C92.8627 27.8656 91.7184 25.0928 91.7184 21.7771C91.7184 18.4615 92.8627 15.6886 95.1514 13.4586C97.4401 11.1993 100.272 10.0696 103.646 10.0696C107.02 10.0696 109.852 11.1993 112.14 13.4586C114.429 15.6886 115.574 18.4615 115.574 21.7771C115.574 25.0928 114.429 27.8656 112.14 30.0956C109.852 32.3256 107.02 33.4406 103.646 33.4406C100.272 33.4406 97.4401 32.3256 95.1514 30.0956ZM98.5404 16.4956C97.1614 17.904 96.4718 19.6645 96.4718 21.7771C96.4718 23.8898 97.1614 25.6503 98.5404 27.0587C99.9195 28.4671 101.621 29.1713 103.646 29.1713C105.7 29.1713 107.402 28.4671 108.751 27.0587C110.131 25.6503 110.82 23.8898 110.82 21.7771C110.82 19.6352 110.131 17.86 108.751 16.4515C107.402 15.0431 105.7 14.3389 103.646 14.3389C101.621 14.3389 99.9195 15.0578 98.5404 16.4956ZM119.457 23.6697V10.5098H124.078V23.6697C124.078 25.3129 124.607 26.6479 125.663 27.6749C126.719 28.6725 128.069 29.1713 129.712 29.1713C131.326 29.1713 132.661 28.6725 133.717 27.6749C134.774 26.6479 135.302 25.3129 135.302 23.6697V10.5098H139.923V23.6697C139.923 26.5452 138.955 28.8926 137.018 30.7118C135.111 32.531 132.676 33.4406 129.712 33.4406C126.719 33.4406 124.254 32.531 122.318 30.7118C120.411 28.8926 119.457 26.5452 119.457 23.6697ZM162.957 17.0237V0.430757H167.578V33.0005H162.957V26.4865C162.253 28.6285 161.108 30.3304 159.524 31.5921C157.969 32.8244 156.135 33.4406 154.022 33.4406C151.117 33.4406 148.697 32.3256 146.76 30.0956C144.823 27.8656 143.855 25.0928 143.855 21.7771C143.855 18.4615 144.823 15.6886 146.76 13.4586C148.697 11.1993 151.117 10.0696 154.022 10.0696C156.135 10.0696 157.969 10.7005 159.524 11.9622C161.108 13.1946 162.253 14.8817 162.957 17.0237ZM155.563 29.1713C157.705 29.1713 159.465 28.4671 160.844 27.0587C162.253 25.6503 162.957 23.8898 162.957 21.7771C162.957 19.6352 162.253 17.86 160.844 16.4515C159.465 15.0431 157.705 14.3389 155.563 14.3389C153.626 14.3389 151.983 15.0578 150.633 16.4956C149.283 17.904 148.608 19.6645 148.608 21.7771C148.608 23.8604 149.283 25.6209 150.633 27.0587C151.983 28.4671 153.626 29.1713 155.563 29.1713ZM55.4813 38.9268C55.3522 38.7977 55.2877 38.6392 55.2877 38.4514C55.2877 38.2636 55.3522 38.1052 55.4813 37.9761C55.6104 37.847 55.7689 37.7824 55.9567 37.7824C56.1445 37.7824 56.3029 37.847 56.432 37.9761C56.5611 38.1052 56.6257 38.2636 56.6257 38.4514C56.6257 38.6392 56.5611 38.7977 56.432 38.9268C56.3029 39.0559 56.1445 39.1204 55.9567 39.1204C55.7689 39.1204 55.6104 39.0559 55.4813 38.9268ZM56.4496 50.0005H55.4813V41.145H56.4496V50.0005ZM63.4817 40.969C64.538 40.969 65.4124 41.3387 66.1049 42.0781C66.8091 42.8175 67.1612 43.7389 67.1612 44.8421V50.0005H66.1929V44.9126C66.1929 44.0558 65.9053 43.3398 65.3302 42.7647C64.7669 42.1779 64.0744 41.8845 63.2528 41.8845C62.3608 41.8845 61.6214 42.172 61.0346 42.7471C60.4477 43.3222 60.1543 44.044 60.1543 44.9126V50.0005H59.186V41.145H60.1543V43.3809C60.4125 42.6532 60.835 42.0723 61.4219 41.638C62.0205 41.192 62.7071 40.969 63.4817 40.969ZM69.4672 45.5816C69.4672 44.267 69.9073 43.1696 70.7876 42.2894C71.6679 41.4091 72.7653 40.969 74.0798 40.969C75.0539 40.969 75.9107 41.2213 76.6502 41.726C77.4013 42.219 77.9529 42.8821 78.305 43.7154L77.4072 44.0323C77.1138 43.375 76.6736 42.8528 76.0868 42.4654C75.4999 42.0781 74.8309 41.8845 74.0798 41.8845C73.0469 41.8845 72.1784 42.2424 71.4742 42.9584C70.7817 43.6626 70.4355 44.537 70.4355 45.5816C70.4355 46.6261 70.7817 47.5005 71.4742 48.2048C72.1784 48.909 73.0469 49.2611 74.0798 49.2611C74.8309 49.2611 75.4999 49.0733 76.0868 48.6977C76.6736 48.3104 77.1138 47.7881 77.4072 47.1308L78.305 47.4301C77.9529 48.2752 77.4013 48.9442 76.6502 49.4371C75.9107 49.9301 75.0539 50.1765 74.0798 50.1765C72.7653 50.1765 71.6679 49.7364 70.7876 48.8561C69.9073 47.9759 69.4672 46.8844 69.4672 45.5816ZM80.1693 45.5816C80.1693 44.267 80.6094 43.1696 81.4897 42.2894C82.3699 41.4091 83.4673 40.969 84.7819 40.969C86.0964 40.969 87.1938 41.4091 88.074 42.2894C88.966 43.1696 89.412 44.267 89.412 45.5816C89.412 46.8844 88.966 47.9759 88.074 48.8561C87.1938 49.7364 86.0964 50.1765 84.7819 50.1765C83.4673 50.1765 82.3699 49.7364 81.4897 48.8561C80.6094 47.9759 80.1693 46.8844 80.1693 45.5816ZM82.1763 42.9584C81.4838 43.6626 81.1376 44.537 81.1376 45.5816C81.1376 46.6261 81.4838 47.5005 82.1763 48.2048C82.8805 48.909 83.749 49.2611 84.7819 49.2611C85.8147 49.2611 86.6774 48.909 87.3698 48.2048C88.074 47.5005 88.4261 46.6261 88.4261 45.5816C88.4261 44.537 88.074 43.6626 87.3698 42.9584C86.6774 42.2424 85.8147 41.8845 84.7819 41.8845C83.749 41.8845 82.8805 42.2424 82.1763 42.9584ZM92.7591 41.145V43.3985C93.4281 41.5793 94.6605 40.7871 96.4562 41.0218V41.9725C95.4351 41.7964 94.5607 41.996 93.833 42.5711C93.1171 43.1462 92.7591 43.9267 92.7591 44.9126V50.0005H91.7908V41.145H92.7591ZM103.244 40.969C104.476 40.969 105.503 41.4091 106.325 42.2894C107.158 43.1696 107.575 44.267 107.575 45.5816C107.575 46.8844 107.158 47.9759 106.325 48.8561C105.503 49.7364 104.476 50.1765 103.244 50.1765C102.34 50.1765 101.536 49.9242 100.832 49.4195C100.139 48.9148 99.6346 48.24 99.3177 47.3949V53.5215H98.3495V41.145H99.3177V43.7506C99.6346 42.9056 100.139 42.2307 100.832 41.726C101.536 41.2213 102.34 40.969 103.244 40.969ZM103.032 49.2611C104.03 49.2611 104.869 48.909 105.55 48.2048C106.242 47.5005 106.589 46.6261 106.589 45.5816C106.589 44.537 106.242 43.6626 105.55 42.9584C104.869 42.2424 104.03 41.8845 103.032 41.8845C101.964 41.8845 101.078 42.2366 100.374 42.9408C99.6699 43.645 99.3177 44.5253 99.3177 45.5816C99.3177 46.6379 99.6699 47.5181 100.374 48.2224C101.078 48.9148 101.964 49.2611 103.032 49.2611ZM109.439 45.5816C109.439 44.267 109.879 43.1696 110.759 42.2894C111.639 41.4091 112.737 40.969 114.051 40.969C115.366 40.969 116.463 41.4091 117.343 42.2894C118.235 43.1696 118.681 44.267 118.681 45.5816C118.681 46.8844 118.235 47.9759 117.343 48.8561C116.463 49.7364 115.366 50.1765 114.051 50.1765C112.737 50.1765 111.639 49.7364 110.759 48.8561C109.879 47.9759 109.439 46.8844 109.439 45.5816ZM111.446 42.9584C110.753 43.6626 110.407 44.537 110.407 45.5816C110.407 46.6261 110.753 47.5005 111.446 48.2048C112.15 48.909 113.018 49.2611 114.051 49.2611C115.084 49.2611 115.947 48.909 116.639 48.2048C117.343 47.5005 117.696 46.6261 117.696 45.5816C117.696 44.537 117.343 43.6626 116.639 42.9584C115.947 42.2424 115.084 41.8845 114.051 41.8845C113.018 41.8845 112.15 42.2424 111.446 42.9584ZM122.029 41.145V43.3985C122.698 41.5793 123.93 40.7871 125.726 41.0218V41.9725C124.705 41.7964 123.83 41.996 123.102 42.5711C122.387 43.1462 122.029 43.9267 122.029 44.9126V50.0005H121.06V41.145H122.029ZM130.469 40.969C131.432 40.969 132.218 41.2272 132.829 41.7436C133.451 42.2483 133.762 42.9525 133.762 43.8563V50.0005H132.793V47.5005C132.16 49.2845 130.957 50.1765 129.184 50.1765C128.363 50.1765 127.694 49.9653 127.177 49.5428C126.673 49.1085 126.42 48.5275 126.42 47.7998C126.42 47.0369 126.69 46.4442 127.23 46.0217C127.782 45.5992 128.509 45.3351 129.413 45.2295L131.579 44.983C132.388 44.8891 132.793 44.5076 132.793 43.8386C132.793 43.2166 132.576 42.7295 132.142 42.3774C131.719 42.0253 131.156 41.8493 130.452 41.8493C129.759 41.8493 129.155 42.0194 128.638 42.3598C128.134 42.6884 127.793 43.2225 127.617 43.9619L126.684 43.6802C126.907 42.7882 127.365 42.1133 128.058 41.6556C128.75 41.1979 129.554 40.969 130.469 40.969ZM129.343 49.3139C130.34 49.3139 131.162 48.9853 131.807 48.328C132.465 47.6707 132.793 46.8902 132.793 45.9865V45.0006C132.641 45.4818 132.189 45.7576 131.438 45.828L129.413 46.0745C128.803 46.1449 128.31 46.321 127.934 46.6027C127.57 46.8726 127.389 47.2599 127.389 47.7646C127.389 48.2341 127.57 48.6097 127.934 48.8914C128.298 49.173 128.768 49.3139 129.343 49.3139ZM137.149 42.0429H135.089V41.145H137.149V37.8L138.118 37.5008V41.145H140.934V42.0429H138.118V47.0956C138.118 47.8233 138.27 48.3397 138.575 48.6449C138.88 48.95 139.391 49.1026 140.107 49.1026H140.934V50.0005H140.107C139.098 50.0005 138.352 49.7658 137.871 49.2963C137.39 48.8151 137.149 48.0756 137.149 47.078V42.0429ZM143.332 38.9268C143.203 38.7977 143.139 38.6392 143.139 38.4514C143.139 38.2636 143.203 38.1052 143.332 37.9761C143.461 37.847 143.62 37.7824 143.808 37.7824C143.995 37.7824 144.154 37.847 144.283 37.9761C144.412 38.1052 144.477 38.2636 144.477 38.4514C144.477 38.6392 144.412 38.7977 144.283 38.9268C144.154 39.0559 143.995 39.1204 143.808 39.1204C143.62 39.1204 143.461 39.0559 143.332 38.9268ZM144.301 50.0005H143.332V41.145H144.301V50.0005ZM146.685 45.5816C146.685 44.267 147.125 43.1696 148.005 42.2894C148.886 41.4091 149.983 40.969 151.297 40.969C152.612 40.969 153.709 41.4091 154.59 42.2894C155.482 43.1696 155.928 44.267 155.928 45.5816C155.928 46.8844 155.482 47.9759 154.59 48.8561C153.709 49.7364 152.612 50.1765 151.297 50.1765C149.983 50.1765 148.886 49.7364 148.005 48.8561C147.125 47.9759 146.685 46.8844 146.685 45.5816ZM148.692 42.9584C147.999 43.6626 147.653 44.537 147.653 45.5816C147.653 46.6261 147.999 47.5005 148.692 48.2048C149.396 48.909 150.265 49.2611 151.297 49.2611C152.33 49.2611 153.193 48.909 153.885 48.2048C154.59 47.5005 154.942 46.6261 154.942 45.5816C154.942 44.537 154.59 43.6626 153.885 42.9584C153.193 42.2424 152.33 41.8845 151.297 41.8845C150.265 41.8845 149.396 42.2424 148.692 42.9584ZM162.602 40.969C163.658 40.969 164.533 41.3387 165.225 42.0781C165.929 42.8175 166.282 43.7389 166.282 44.8421V50.0005H165.313V44.9126C165.313 44.0558 165.026 43.3398 164.451 42.7647C163.887 42.1779 163.195 41.8845 162.373 41.8845C161.481 41.8845 160.742 42.172 160.155 42.7471C159.568 43.3222 159.275 44.044 159.275 44.9126V50.0005H158.306V41.145H159.275V43.3809C159.533 42.6532 159.955 42.0723 160.542 41.638C161.141 41.192 161.827 40.969 162.602 40.969Z" fill="black"/>
</svg>
