<svg width="32" height="52" viewBox="0 0 32 52" fill="none" xmlns="http://www.w3.org/2000/svg">
<path fill-rule="evenodd" clip-rule="evenodd" d="M25.1428 51.2H6.85712C3.0857 51.2 0 48.0591 0 44.2191V6.98092C0 3.14092 3.0857 0 6.85712 0H25.1428C28.9142 0 32 3.14092 32 6.98092V44.2191C32 48.0591 28.9142 51.2 25.1428 51.2ZM6.85712 4.65526C5.59998 4.65526 4.57142 5.70092 4.57142 6.98092V44.2191C4.57142 45.4991 5.59998 46.5447 6.85712 46.5447H25.1428C26.3999 46.5447 27.4285 45.4991 27.4285 44.2191V6.98092C27.4285 5.70092 26.3999 4.65526 25.1428 4.65526H6.85712Z" fill="#E0AA63"/>
</svg>
