<svg width="27" height="37" viewBox="0 0 27 37" fill="none" xmlns="http://www.w3.org/2000/svg">
<path fill-rule="evenodd" clip-rule="evenodd" d="M21.9366 3.6285H18.2581C17.5493 1.6402 15.693 0.200195 13.5 0.200195C11.3057 0.200195 9.44932 1.6402 8.74059 3.6285H5.06199C2.27749 3.6285 0 5.94358 0 8.77096V31.0577C0 33.8865 2.27749 36.2002 5.06199 36.2002H21.9366C24.7212 36.2002 27 33.8865 27 31.0577V8.77096C27 5.94358 24.7212 3.6285 21.9366 3.6285ZM13.5 3.6285C14.4282 3.6285 15.1873 4.39973 15.1873 5.34266C15.1873 6.28558 14.4282 7.05681 13.5 7.05681C12.5718 7.05681 11.8127 6.28558 11.8127 5.34266C11.8127 4.39973 12.5718 3.6285 13.5 3.6285ZM23.624 31.0577C23.624 32.0007 22.8648 32.7719 21.9366 32.7719H5.06199C4.13382 32.7719 3.37466 32.0007 3.37466 31.0577V8.77096C3.37466 7.82943 4.13382 7.05681 5.06199 7.05681H6.74932V8.77096C6.74932 9.71389 7.50984 10.4865 8.43665 10.4865H18.562C19.4902 10.4865 20.2493 9.71389 20.2493 8.77096V7.05681H21.9366C22.8648 7.05681 23.624 7.82943 23.624 8.77096V31.0577Z" fill="#E0AA63"/>
</svg>
