<svg width="33" height="34" viewBox="0 0 33 34" fill="none" xmlns="http://www.w3.org/2000/svg">
<path fill-rule="evenodd" clip-rule="evenodd" d="M28.05 16.7002C28.05 15.7872 27.3103 15.0502 26.4 15.0502H6.6C5.68975 15.0502 4.95 15.7872 4.95 16.7002C4.95 17.6132 5.68975 18.3502 6.6 18.3502H26.4C27.3103 18.3502 28.05 17.6132 28.05 16.7002ZM33 28.2502V26.6002C33 25.6872 32.2603 24.9502 31.35 24.9502C30.4397 24.9502 29.7 25.6872 29.7 26.6002V28.2502C29.7 29.1604 28.9589 29.9002 28.05 29.9002H26.4C25.4898 29.9002 24.75 30.6372 24.75 31.5502C24.75 32.4632 25.4898 33.2002 26.4 33.2002H28.05C30.7794 33.2002 33 30.9796 33 28.2502ZM33 6.8002V5.1502C33 2.42082 30.7794 0.200195 28.05 0.200195H26.4C25.4898 0.200195 24.75 0.937195 24.75 1.8502C24.75 2.7632 25.4898 3.5002 26.4 3.5002H28.05C28.9589 3.5002 29.7 4.23995 29.7 5.1502V6.8002C29.7 7.7132 30.4397 8.4502 31.35 8.4502C32.2603 8.4502 33 7.7132 33 6.8002ZM8.25 31.5502C8.25 30.6372 7.51025 29.9002 6.6 29.9002H4.95C4.04112 29.9002 3.3 29.1604 3.3 28.2502V26.6002C3.3 25.6872 2.56025 24.9502 1.65 24.9502C0.73975 24.9502 0 25.6872 0 26.6002V28.2502C0 30.9796 2.22062 33.2002 4.95 33.2002H6.6C7.51025 33.2002 8.25 32.4632 8.25 31.5502ZM1.65 8.4502C0.73975 8.4502 0 7.7132 0 6.8002V5.1502C0 2.42082 2.22062 0.200195 4.95 0.200195H6.6C7.51025 0.200195 8.25 0.937195 8.25 1.8502C8.25 2.7632 7.51025 3.5002 6.6 3.5002H4.95C4.04112 3.5002 3.3 4.23995 3.3 5.1502V6.8002C3.3 7.7132 2.56025 8.4502 1.65 8.4502Z" fill="#E0AA63"/>
</svg>
