<svg width="24" height="19" viewBox="0 0 24 19" fill="none" xmlns="http://www.w3.org/2000/svg">
<path d="M23.1 2.81422C22.2632 3.17724 21.3783 3.41722 20.4728 3.52669C21.4281 2.95596 22.1441 2.0581 22.4877 0.999663C21.59 1.53408 20.6072 1.91061 19.5822 2.11289C18.8971 1.36989 17.9847 0.875311 16.9882 0.706718C15.9917 0.538125 14.9674 0.705056 14.076 1.18133C13.1845 1.6576 12.4764 2.41628 12.0626 3.33837C11.6488 4.26047 11.5528 5.29382 11.7896 6.27636C9.97441 6.18455 8.19883 5.71191 6.57821 4.88913C4.95759 4.06635 3.52818 2.91185 2.38284 1.50062C1.98111 2.20214 1.77003 2.9966 1.77056 3.805C1.76914 4.55574 1.95337 5.29518 2.30686 5.9575C2.66036 6.61981 3.17214 7.18444 3.79664 7.60111C3.07079 7.58136 2.36044 7.38659 1.72603 7.03336V7.08902C1.73147 8.1409 2.10007 9.15862 2.76948 9.97002C3.43888 10.7814 4.36801 11.3367 5.39968 11.5419C5.00255 11.6628 4.59023 11.7265 4.17513 11.7312C3.8878 11.7278 3.60118 11.7018 3.31795 11.6533C3.61174 12.5581 4.18028 13.3489 4.94446 13.9155C5.70864 14.4822 6.63044 14.7965 7.58161 14.8148C5.97545 16.0786 3.99243 16.7684 1.94868 16.7741C1.57656 16.7753 1.20475 16.753 0.835449 16.7073C2.92212 18.0546 5.35383 18.7698 7.83765 18.7668C9.55168 18.7846 11.2521 18.4607 12.8395 17.814C14.427 17.1672 15.8696 16.2107 17.0832 15.0002C18.2969 13.7897 19.2571 12.3495 19.9079 10.7637C20.5587 9.17791 20.887 7.47835 20.8736 5.76428C20.8736 5.57503 20.8736 5.37465 20.8736 5.17427C21.7471 4.52282 22.5005 3.72421 23.1 2.81422Z" fill="black"/>
</svg>
